<svg xmlns="http://www.w3.org/2000/svg" viewBox="0 0 400 400" width="100%" height="100%">
  <defs>
    <linearGradient id="bgGrad" x1="0%" y1="0%" x2="0%" y2="100%">
      <stop offset="0%" stop-color="#fffbeb"/>
      <stop offset="100%" stop-color="#fef3c7"/>
    </linearGradient>
    <radialGradient id="shadowGrad" cx="50%" cy="50%" r="50%">
      <stop offset="0%" stop-color="rgba(15,23,42,0.15)"/>
      <stop offset="100%" stop-color="rgba(15,23,42,0)"/>
    </radialGradient>
    <filter id="softShadow" x="-10%" y="-10%" width="120%" height="120%">
      <feDropShadow dx="0" dy="8" stdDeviation="12" flood-color="rgba(15,23,42,0.12)"/>
    </filter>
  </defs>

  <!-- Clean Canvas Background -->
  <rect width="400" height="400" rx="16" fill="url(#bgGrad)"/>
  <rect x="1" y="1" width="398" height="398" rx="15" fill="none" stroke="rgba(226,232,240,0.8)" stroke-width="1.5"/>

  <!-- Studio Surface Radial Floor Shadow -->
  <ellipse cx="200" cy="300" rx="120" ry="24" fill="url(#shadowGrad)"/>

  <!-- Main Central Product Visual Frame -->
  <g filter="url(#softShadow)">
    
            <path d="M140 180 Q140 120 200 120 Q260 120 260 180 L250 260 L150 260 Z" fill="#d97706" opacity="0.85"/>
            <line x1="170" y1="150" x2="185" y2="180" stroke="#fef3c7" stroke-width="4" stroke-linecap="round"/>
            <line x1="200" y1="145" x2="200" y2="180" stroke="#fef3c7" stroke-width="4" stroke-linecap="round"/>
            <line x1="230" y1="150" x2="215" y2="180" stroke="#fef3c7" stroke-width="4" stroke-linecap="round"/>
        
  </g>

  <!-- Center Floating Icon Badge -->
  <circle cx="200" cy="180" r="32" fill="#ffffff" stroke="rgba(226,232,240,0.9)" stroke-width="2"/>
  <text x="200" y="188" font-size="30" text-anchor="middle" dominant-baseline="central">🥖</text>

  <!-- Product Category Label -->
  <rect x="75" y="325" width="250" height="32" rx="16" fill="#ffffff" stroke="rgba(226,232,240,0.9)" stroke-width="1"/>
  <text x="200" y="345" font-family="-apple-system,BlinkMacSystemFont,'Segoe UI',Roboto,sans-serif" font-size="12" font-weight="600" fill="#b45309" text-anchor="middle">Artisan Bakery Bread</text>
</svg>